<?xml version="1.0" encoding="utf-8" standalone="no"?>
<svg xmlns="http://www.w3.org/2000/svg" xmlns:xlink="http://www.w3.org/1999/xlink" height="327px" style="width:880px;height:327px;" version="1.1" viewBox="0 0 880 327" width="880px" zoomAndPan="magnify">
<defs>
<filter height="300%" id="fm917d1emsvt" width="300%" x="-1" y="-1">
<feGaussianBlur result="blurOut" stdDeviation="2.0"/>
<feColorMatrix in="blurOut" result="blurOut2" type="matrix" values="0 0 0 0 0 0 0 0 0 0 0 0 0 0 0 0 0 0 .4 0"/>
<feOffset dx="4.0" dy="4.0" in="blurOut2" result="blurOut3"/>
<feBlend in="SourceGraphic" in2="blurOut3" mode="normal"/>
</filter>
</defs>
<g>
<rect fill="#FFFFFF" filter="url(#fm917d1emsvt)" height="94.8906" style="stroke: #000000; stroke-width: 2.0;" width="437" x="431.5" y="174.0156"/>
<rect fill="#FFFFFF" height="46.1875" style="stroke: none; stroke-width: 1.0;" width="437" x="431.5" y="222.7188"/>
<line style="stroke: #A80036; stroke-width: 1.0; stroke-dasharray: 5.0,5.0;" x1="178" x2="178" y1="39.6094" y2="285.9063"/>
<line style="stroke: #A80036; stroke-width: 1.0; stroke-dasharray: 5.0,5.0;" x1="305.5" x2="305.5" y1="39.6094" y2="285.9063"/>
<line style="stroke: #A80036; stroke-width: 1.0; stroke-dasharray: 5.0,5.0;" x1="475.5" x2="475.5" y1="39.6094" y2="285.9063"/>
<line style="stroke: #A80036; stroke-width: 1.0; stroke-dasharray: 5.0,5.0;" x1="822.5" x2="822.5" y1="39.6094" y2="285.9063"/>
<rect fill="#FEFECE" filter="url(#fm917d1emsvt)" height="31.6094" style="stroke: #A80036; stroke-width: 1.5;" width="110" x="121" y="3"/>
<text fill="#000000" font-family="sans-serif" font-size="14" lengthAdjust="spacingAndGlyphs" textLength="96" x="128" y="24.5332">UserOrProcess</text>
<rect fill="#FEFECE" filter="url(#fm917d1emsvt)" height="31.6094" style="stroke: #A80036; stroke-width: 1.5;" width="110" x="121" y="284.9063"/>
<text fill="#000000" font-family="sans-serif" font-size="14" lengthAdjust="spacingAndGlyphs" textLength="96" x="128" y="306.4395">UserOrProcess</text>
<rect fill="#FEFECE" filter="url(#fm917d1emsvt)" height="31.6094" style="stroke: #A80036; stroke-width: 1.5;" width="31" x="288.5" y="3"/>
<text fill="#000000" font-family="sans-serif" font-size="14" lengthAdjust="spacingAndGlyphs" textLength="17" x="295.5" y="24.5332">S3</text>
<rect fill="#FEFECE" filter="url(#fm917d1emsvt)" height="31.6094" style="stroke: #A80036; stroke-width: 1.5;" width="31" x="288.5" y="284.9063"/>
<text fill="#000000" font-family="sans-serif" font-size="14" lengthAdjust="spacingAndGlyphs" textLength="17" x="295.5" y="306.4395">S3</text>
<rect fill="#FEFECE" filter="url(#fm917d1emsvt)" height="31.6094" style="stroke: #A80036; stroke-width: 1.5;" width="65" x="441.5" y="3"/>
<text fill="#000000" font-family="sans-serif" font-size="14" lengthAdjust="spacingAndGlyphs" textLength="51" x="448.5" y="24.5332">Lambda</text>
<rect fill="#FEFECE" filter="url(#fm917d1emsvt)" height="31.6094" style="stroke: #A80036; stroke-width: 1.5;" width="65" x="441.5" y="284.9063"/>
<text fill="#000000" font-family="sans-serif" font-size="14" lengthAdjust="spacingAndGlyphs" textLength="51" x="448.5" y="306.4395">Lambda</text>
<rect fill="#FEFECE" filter="url(#fm917d1emsvt)" height="31.6094" style="stroke: #A80036; stroke-width: 1.5;" width="67" x="787.5" y="3"/>
<text fill="#000000" font-family="sans-serif" font-size="14" lengthAdjust="spacingAndGlyphs" textLength="53" x="794.5" y="24.5332">Pixboost</text>
<rect fill="#FEFECE" filter="url(#fm917d1emsvt)" height="31.6094" style="stroke: #A80036; stroke-width: 1.5;" width="67" x="787.5" y="284.9063"/>
<text fill="#000000" font-family="sans-serif" font-size="14" lengthAdjust="spacingAndGlyphs" textLength="53" x="794.5" y="306.4395">Pixboost</text>
<polygon fill="#A80036" points="294,81.1367,304,85.1367,294,89.1367,298,85.1367" style="stroke: #A80036; stroke-width: 1.0;"/>
<line style="stroke: #A80036; stroke-width: 1.0;" x1="178" x2="300" y1="85.1367" y2="85.1367"/>
<text fill="#000000" font-family="sans-serif" font-size="13" lengthAdjust="spacingAndGlyphs" textLength="104" x="185" y="80.2803">Uploads an image</text>
<path d="M8,54.6094 L8,96.6094 L169,96.6094 L169,64.6094 L159,54.6094 L8,54.6094 " fill="#FBFB77" filter="url(#fm917d1emsvt)" style="stroke: #A80036; stroke-width: 1.0;"/>
<path d="M159,54.6094 L159,64.6094 L169,64.6094 L159,54.6094 " fill="#FBFB77" style="stroke: #A80036; stroke-width: 1.0;"/>
<text fill="#000000" font-family="sans-serif" font-size="13" lengthAdjust="spacingAndGlyphs" textLength="128" x="14" y="73.1045">Could be a new image</text>
<text fill="#000000" font-family="sans-serif" font-size="13" lengthAdjust="spacingAndGlyphs" textLength="140" x="14" y="89.4561">or an update to existing.</text>
<polygon fill="#A80036" points="464,124.6641,474,128.6641,464,132.6641,468,128.6641" style="stroke: #A80036; stroke-width: 1.0;"/>
<line style="stroke: #A80036; stroke-width: 1.0;" x1="306" x2="470" y1="128.6641" y2="128.6641"/>
<text fill="#000000" font-family="sans-serif" font-size="13" lengthAdjust="spacingAndGlyphs" textLength="146" x="313" y="123.8076">Triggers notification event</text>
<polygon fill="#A80036" points="811,155.0156,821,159.0156,811,163.0156,815,159.0156" style="stroke: #A80036; stroke-width: 1.0;"/>
<line style="stroke: #A80036; stroke-width: 1.0;" x1="476" x2="817" y1="159.0156" y2="159.0156"/>
<text fill="#000000" font-family="sans-serif" font-size="13" lengthAdjust="spacingAndGlyphs" textLength="323" x="483" y="154.1592">DELETE /api/2/img/&lt;IMG_URL&gt;?auth=&lt;API_SECRET&gt;</text>
<path d="M431.5,174.0156 L492.5,174.0156 L492.5,182.0156 L482.5,192.0156 L431.5,192.0156 L431.5,174.0156 " fill="#EEEEEE" style="stroke: #000000; stroke-width: 1.0;"/>
<rect fill="none" height="94.8906" style="stroke: #000000; stroke-width: 2.0;" width="437" x="431.5" y="174.0156"/>
<text fill="#000000" font-family="sans-serif" font-size="13" font-weight="bold" lengthAdjust="spacingAndGlyphs" textLength="16" x="446.5" y="188.5107">alt</text>
<text fill="#000000" font-family="sans-serif" font-size="11" font-weight="bold" lengthAdjust="spacingAndGlyphs" textLength="120" x="507.5" y="187.4346">[If image was cached]</text>
<polygon fill="#A80036" points="487,210.7188,477,214.7188,487,218.7188,483,214.7188" style="stroke: #A80036; stroke-width: 1.0;"/>
<line style="stroke: #A80036; stroke-width: 1.0;" x1="481" x2="822" y1="214.7188" y2="214.7188"/>
<text fill="#000000" font-family="sans-serif" font-size="13" lengthAdjust="spacingAndGlyphs" textLength="312" x="493" y="209.8623">202 Accepted. Cache clearing for image been initiated</text>
<line style="stroke: #000000; stroke-width: 1.0; stroke-dasharray: 2.0,2.0;" x1="431.5" x2="868.5" y1="223.7188" y2="223.7188"/>
<text fill="#000000" font-family="sans-serif" font-size="11" font-weight="bold" lengthAdjust="spacingAndGlyphs" textLength="366" x="436.5" y="235.1377">[The image hasn't been cached on CDN. Nothing needs to be done]</text>
<polygon fill="#A80036" points="487,256.9063,477,260.9063,487,264.9063,483,260.9063" style="stroke: #A80036; stroke-width: 1.0;"/>
<line style="stroke: #A80036; stroke-width: 1.0;" x1="481" x2="822" y1="260.9063" y2="260.9063"/>
<text fill="#000000" font-family="sans-serif" font-size="13" lengthAdjust="spacingAndGlyphs" textLength="48" x="493" y="256.0498">200 OK.</text>
</g>
</svg>
